<svg width="54" height="54" viewBox="0 0 54 54" fill="none" xmlns="http://www.w3.org/2000/svg">
<path d="M21.6425 1.21925C25.0728 -0.201666 28.9272 -0.201663 32.3576 1.21925L41.4414 4.98191C44.8718 6.40283 47.5973 9.12826 49.0182 12.5587L52.7808 21.6425C54.2018 25.0729 54.2018 28.9273 52.7808 32.3576L49.0182 41.4415C47.5973 44.8719 44.8718 47.5973 41.4414 49.0182L32.3576 52.7809C28.9272 54.2018 25.0728 54.2018 21.6424 52.7809L12.5586 49.0182C9.12819 47.5973 6.40276 44.8719 4.98185 41.4415L1.21919 32.3576C-0.201727 28.9272 -0.201724 25.0729 1.21919 21.6425L4.98185 12.5586C6.40276 9.12825 9.1282 6.40282 12.5586 4.98191L21.6425 1.21925Z" fill="#FF6B00"/>
<path d="M17 36.0001C16.4477 36.0001 16 36.4478 16 37.0001C16 37.5524 16.4477 38.0001 17 38.0001V36.0001ZM34.5 38.0001C35.0523 38.0001 35.5 37.5524 35.5 37.0001C35.5 36.4478 35.0523 36.0001 34.5 36.0001V38.0001ZM34.5 23.2501V22.2501C33.9477 22.2501 33.5 22.6978 33.5 23.2501H34.5ZM34.5 29.5001H33.5C33.5 30.0524 33.9477 30.5001 34.5 30.5001V29.5001ZM31.6444 16.1973C31.8914 15.7034 31.6912 15.1027 31.1972 14.8557C30.7033 14.6087 30.1026 14.8089 29.8556 15.3029L31.6444 16.1973ZM28.6056 17.8029C28.3586 18.2969 28.5588 18.8976 29.0528 19.1445C29.5468 19.3915 30.1475 19.1913 30.3944 18.6973L28.6056 17.8029ZM27.8944 16.1973C28.1414 15.7034 27.9412 15.1027 27.4472 14.8557C26.9533 14.6087 26.3526 14.8089 26.1056 15.3029L27.8944 16.1973ZM24.8556 17.8029C24.6086 18.2969 24.8088 18.8976 25.3028 19.1445C25.7968 19.3915 26.3975 19.1913 26.6444 18.6973L24.8556 17.8029ZM24.1444 16.1973C24.3914 15.7034 24.1912 15.1027 23.6972 14.8557C23.2033 14.6087 22.6026 14.8089 22.3556 15.3029L24.1444 16.1973ZM21.1056 17.8029C20.8586 18.2969 21.0588 18.8976 21.5528 19.1445C22.0468 19.3915 22.6475 19.1913 22.8944 18.6973L21.1056 17.8029ZM17 38.0001H34.5V36.0001H17V38.0001ZM34.5 24.2501H36.375V22.2501H34.5V24.2501ZM36.375 28.5001H34.5V30.5001H36.375V28.5001ZM35.5 29.5001V23.2501H33.5V29.5001H35.5ZM38.5 26.3751C38.5 27.5487 37.5486 28.5001 36.375 28.5001V30.5001C38.6532 30.5001 40.5 28.6533 40.5 26.3751H38.5ZM36.375 24.2501C37.5486 24.2501 38.5 25.2015 38.5 26.3751H40.5C40.5 24.0969 38.6532 22.2501 36.375 22.2501V24.2501ZM33.5 23.154V28.2501H35.5V23.154H33.5ZM18 28.2501V23.154H16V28.2501H18ZM18.1536 23.0001H33.3459V21.0001H18.1536V23.0001ZM18 23.154C18 23.0687 18.069 23.0001 18.1536 23.0001V21.0001C16.9637 21.0001 16 21.9648 16 23.154H18ZM25.75 36.0001C21.4698 36.0001 18 32.5303 18 28.2501H16C16 33.6349 20.3652 38.0001 25.75 38.0001V36.0001ZM33.5 28.2501C33.5 32.5303 30.0302 36.0001 25.75 36.0001V38.0001C31.1348 38.0001 35.5 33.6349 35.5 28.2501H33.5ZM35.5 23.154C35.5 21.9642 34.5351 21.0001 33.3459 21.0001V23.0001C33.4311 23.0001 33.5 23.0693 33.5 23.154H35.5ZM29.8556 15.3029L28.6056 17.8029L30.3944 18.6973L31.6444 16.1973L29.8556 15.3029ZM26.1056 15.3029L24.8556 17.8029L26.6444 18.6973L27.8944 16.1973L26.1056 15.3029ZM22.3556 15.3029L21.1056 17.8029L22.8944 18.6973L24.1444 16.1973L22.3556 15.3029Z" fill="white"/>
</svg>
